<svg xmlns="http://www.w3.org/2000/svg" xmlns:xlink="http://www.w3.org/1999/xlink" xmlns:inkscape="http://www.inkscape.org/namespaces/inkscape" version="1.1" width="898.304" height="693.91207" viewBox="0 0 898.304 693.91207">
<defs>
<clipPath id="clip_1">
<path transform="matrix(1,0,0,-1,-547.248,1547.556)" d="M547.248 853.644H1445.552V1547.556H547.248Z" clip-rule="evenodd"/>
</clipPath>
<clipPath id="clip_2">
<path transform="matrix(1,0,0,-1,-547.248,1547.556)" d="M0 2000H2000V0H0Z"/>
</clipPath>
</defs>
<g clip-path="url(#clip_1)">
<g inkscape:groupmode="layer" inkscape:label="Livello 1">
<g clip-path="url(#clip_2)">
<path transform="matrix(1,0,0,-1,557.11886,47.865846)" d="M0 0H-281.572-349.45L-452.347-422.928H-366.96L-281.572-87.286H0C42.268-87.286 78.417-113.92 92.594-151.279H182.982C166.549-65.238 90.756 0 0 0" fill="#d3020f"/>
<path transform="matrix(1,0,0,-1,501.47676,318.61744)" d="M0 0H241.011L334.853 85.699H0C-63.559 85.699-115.267 33.991-115.267-29.568-115.267-39.787-113.914-49.694-111.406-59.135-98.316-108.411-53.339-144.835 0-144.835H73.529C100.248-144.835 121.986-166.572 121.986-193.291 121.986-220.01 100.248-241.747 73.529-241.747H-271.001L-362.346-327.447H73.529C147.502-327.447 207.685-267.264 207.685-193.291 207.685-176.207 204.441-159.876 198.592-144.835 179.117-94.747 130.418-59.135 73.529-59.135H0C-16.304-59.135-29.568-45.871-29.568-29.568-29.568-13.264-16.304 0 0 0" fill="#d3020f"/>
<path transform="matrix(1,0,0,-1,219.39319,509.95033)" d="M0 0-157.486-136.114-124.315 0Z" fill="#d3020f"/>
<path transform="matrix(1,0,0,-1,-547.248,1547.556)" d="M575.043 687.333H414.77705V710.115H575.043Z" fill="#d3020f"/>
<path transform="matrix(1,0,0,-1,9.527527,914.83908)" d="M0 0H-141.998V22.782H18.267Z" fill="#d3020f"/>
<path transform="matrix(1,0,0,-1,-114.203098,782.82577)" d="M0 0H141.998V-22.782H-18.267Z" fill="#d3020f"/>
<path transform="matrix(1,0,0,-1,-325.83418,892.057)" d="M0 0H103.65C106.997 0 109.72 2.723 109.72 6.071V80.112C109.72 83.458 106.997 86.181 103.65 86.181H0ZM103.65-23.012H-23.012V109.193H103.65C119.686 109.193 132.732 96.148 132.732 80.112V6.071C132.732-9.965 119.686-23.012 103.65-23.012" fill="#d3020f"/>
<path transform="matrix(1,0,0,-1,220.53919,782.8637)" d="M0 0-54.648-108.767H-63.465L-118.113 0H-146.83L-80.405-132.205H-66.424-51.689-37.708L28.716 0Z" fill="#d3020f"/>
<path transform="matrix(1,0,0,-1,324.87,805.8062)" d="M0 0C-3.704 0-6.719-3.004-6.719-6.695V-79.625C-6.719-83.316-3.704-86.32 0-86.32H96.029C99.732-86.32 102.747-83.316 102.747-79.625V-6.695C102.747-3.004 99.732 0 96.029 0ZM96.029-109.263H0C-16.4-109.263-29.743-95.967-29.743-79.625V-6.695C-29.743 9.646-16.4 22.943 0 22.943H96.029C112.429 22.943 125.771 9.646 125.771-6.695V-79.625C125.771-95.967 112.429-109.263 96.029-109.263"/>
<path transform="matrix(1,0,0,-1,719.0589,805.8062)" d="M0 0C-3.704 0-6.719-3.004-6.719-6.695V-79.625C-6.719-83.316-3.704-86.32 0-86.32H96.029C99.732-86.32 102.747-83.316 102.747-79.625V-6.695C102.747-3.004 99.732 0 96.029 0ZM96.029-109.263H0C-16.4-109.263-29.743-95.967-29.743-79.625V-6.695C-29.743 9.646-16.4 22.943 0 22.943H96.029C112.429 22.943 125.771 9.646 125.771-6.695V-79.625C125.771-95.967 112.429-109.263 96.029-109.263"/>
<path transform="matrix(1,0,0,-1,639.03756,915.0689)" d="M0 0H-107.443C-123.522 0-136.603 13.093-136.603 29.185V132.205H-113.566V29.185C-113.566 25.807-110.82 23.059-107.443 23.059H0Z"/>
<path transform="matrix(1,0,0,-1,1032.1436,839.0817)" d="M0 0H-52.46V-22.085H0V-52.96H-95.819C-98.806-52.96-101.236-50.536-101.236-47.555V27.784C-101.236 30.765-98.806 33.19-95.819 33.19H24.088V56.218H-95.819C-111.526 56.218-124.306 43.462-124.306 27.784V-47.555C-124.306-63.233-111.526-75.987-95.819-75.987H0 24.088 24.089V-22.085 0Z"/>
<path transform="matrix(1,0,0,-1,1254.3501,782.8637)" d="M0 0H-30.636L-79.241-57.465-127.847 0H-157.662L-158.14-.405-92.039-78.554V-132.205H-66.688V-78.843Z"/>
<path transform="matrix(1,0,0,-1,225.74414,1022.60708)" d="M0 0-28.69 31.866H-16.974L5.147 6.68 26.281 31.866H37.779L9.418 .219V-24.639H0Z" fill="#d3020f"/>
<path transform="matrix(1,0,0,-1,529.78109,1047.2462)" d="M0 0H-9.418V48.84H-35.26V56.505H25.952V48.84H0Z" fill="#d3020f"/>
<path transform="matrix(1,0,0,-1,643.5018,990.7409)" d="M0 0H53.128V-7.557H9.417V-24.529H43.828V-31.976H9.417V-48.73H53.567V-56.505H0Z" fill="#d3020f"/>
<path transform="matrix(1,0,0,-1,98.61084,1014.1759)" d="M0 0H-35.59V15.77H4.38V10.23H12.483V11.06C12.483 20.806 8.651 23.435-.766 23.435H-30.88C-40.955 23.435-44.021 20.588-44.021 10.075V5.147C-44.021-5.366-40.955-8.213-30.88-8.213H4.599V-25.186H-37.451V-19.938H-46.207C-46.16-30.149-43.067-33.07-32.961-33.07H0C10.184-33.07 13.14-30.113 13.14-19.711V-13.36C13.14-3.176 10.293 0 0 0" fill="#d3020f"/>
<path transform="matrix(1,0,0,-1,395.44245,1014.1759)" d="M0 0H-35.59V15.77H4.38V10.23H12.484V11.06C12.484 20.806 8.651 23.435-.766 23.435H-30.88C-40.955 23.435-44.021 20.588-44.021 10.075V5.147C-44.021-5.366-40.955-8.213-30.88-8.213H4.599V-25.186H-37.451V-19.938H-46.207C-46.16-30.149-43.067-33.07-32.961-33.07H0C10.184-33.07 13.14-30.113 13.14-19.711V-13.36C13.14-3.176 10.293 0 0 0" fill="#d3020f"/>
<path transform="matrix(1,0,0,-1,843.68917,990.7409)" d="M0 0H-1.768L-23.627-26.791-45.486 0H-47.255-56.666V-1.185-56.505H-47.255V-12.719L-23.627-41.678 0-12.719V-56.505H9.411V-1.185 0Z" fill="#d3020f"/>
<path transform="matrix(1,0,0,-1,-547.248,1547.556)" d="M1799.011 525.99H1461.019V531.33H1799.011Z" fill="#d3020f"/>
<path transform="matrix(1,0,0,-1,-547.248,1547.556)" d="M200.989 525.99H538.981V531.33H200.989Z" fill="#d3020f"/>
</g>
</g>
</g>
</svg>
